<svg xmlns="http://www.w3.org/2000/svg" xmlns:xlink="http://www.w3.org/1999/xlink" width="305" zoomAndPan="magnify" viewBox="33 284 305 42" height="42" preserveAspectRatio="xMidYMid meet" version="1.0"><defs><g/><clipPath id="2a81b72dfa"><path d="M 92.332031 44.011719 L 285.832031 44.011719 L 285.832031 280.261719 L 92.332031 280.261719 Z M 92.332031 44.011719 " clip-rule="nonzero"/></clipPath><clipPath id="5451144c5d"><path d="M 44 0.078125 L 76 0.078125 L 76 31 L 44 31 Z M 44 0.078125 " clip-rule="nonzero"/></clipPath><clipPath id="7d0cea86f8"><path d="M 254 0.078125 L 286 0.078125 L 286 37 L 254 37 Z M 254 0.078125 " clip-rule="nonzero"/></clipPath><clipPath id="e80a40e5ff"><rect x="0" width="305" y="0" height="38"/></clipPath></defs><g clip-path="url(#2a81b72dfa)"><path fill="#000000" d="M 220.832031 150.472656 L 207.953125 150.472656 C 237.390625 150.472656 261.21875 126.625 261.21875 97.265625 C 261.21875 67.855469 237.390625 44.011719 207.953125 44.011719 L 92.363281 44.011719 L 92.363281 50.417969 L 116.332031 50.417969 L 116.332031 272.4375 L 92.363281 272.4375 L 92.363281 280.261719 L 220.832031 280.261719 C 256.6875 280.261719 285.796875 251.230469 285.796875 215.367188 C 285.75 179.5 256.6875 150.472656 220.832031 150.472656 Z M 153.507812 50.417969 L 181.296875 50.417969 C 207.199219 50.417969 228.191406 71.390625 228.191406 97.265625 C 228.191406 123.136719 207.199219 144.109375 181.296875 144.109375 L 153.507812 144.109375 Z M 192.007812 272.4375 L 153.507812 272.4375 L 153.507812 158.246094 L 192.007812 158.246094 C 223.570312 158.246094 249.140625 183.835938 249.140625 215.367188 C 249.140625 246.894531 223.570312 272.4375 192.007812 272.4375 Z M 192.007812 272.4375 " fill-opacity="1" fill-rule="nonzero"/></g><g transform="matrix(1, 0, 0, 1, 33, 286)"><g clip-path="url(#e80a40e5ff)"><g fill="#000000" fill-opacity="1"><g transform="translate(0.464334, 30.031389)"><g><path d="M 17.0625 0 L 3.40625 0 L 3.40625 -28.5625 L 15.859375 -28.5625 C 17.597656 -28.5625 19.117188 -28.25 20.421875 -27.625 C 21.722656 -27.007812 22.734375 -26.125 23.453125 -24.96875 C 24.179688 -23.8125 24.546875 -22.429688 24.546875 -20.828125 C 24.546875 -19.992188 24.378906 -19.191406 24.046875 -18.421875 C 23.722656 -17.660156 23.285156 -16.988281 22.734375 -16.40625 C 22.191406 -15.832031 21.59375 -15.40625 20.9375 -15.125 C 21.90625 -14.8125 22.785156 -14.320312 23.578125 -13.65625 C 24.367188 -13 25 -12.207031 25.46875 -11.28125 C 25.945312 -10.363281 26.1875 -9.367188 26.1875 -8.296875 C 26.1875 -6.878906 25.929688 -5.648438 25.421875 -4.609375 C 24.910156 -3.566406 24.21875 -2.707031 23.34375 -2.03125 C 22.46875 -1.351562 21.488281 -0.84375 20.40625 -0.5 C 19.320312 -0.164062 18.207031 0 17.0625 0 Z M 8.671875 -24.0625 L 8.671875 -16.640625 L 15.609375 -16.640625 C 16.304688 -16.640625 16.929688 -16.800781 17.484375 -17.125 C 18.035156 -17.457031 18.472656 -17.90625 18.796875 -18.46875 C 19.117188 -19.039062 19.28125 -19.675781 19.28125 -20.375 C 19.28125 -21.070312 19.117188 -21.703125 18.796875 -22.265625 C 18.472656 -22.828125 18.035156 -23.265625 17.484375 -23.578125 C 16.941406 -23.898438 16.320312 -24.0625 15.625 -24.0625 Z M 8.671875 -12.703125 L 8.671875 -4.515625 L 16.59375 -4.515625 C 17.40625 -4.515625 18.128906 -4.691406 18.765625 -5.046875 C 19.398438 -5.410156 19.898438 -5.90625 20.265625 -6.53125 C 20.640625 -7.164062 20.828125 -7.890625 20.828125 -8.703125 C 20.828125 -9.441406 20.644531 -10.109375 20.28125 -10.703125 C 19.925781 -11.304688 19.425781 -11.789062 18.78125 -12.15625 C 18.144531 -12.519531 17.429688 -12.703125 16.640625 -12.703125 Z M 8.671875 -12.703125 "/></g></g></g><g clip-path="url(#5451144c5d)"><g fill="#000000" fill-opacity="1"><g transform="translate(43.520823, 30.031389)"><g><path d="M 16.78125 0.609375 C 15.082031 0.609375 13.460938 0.363281 11.921875 -0.125 C 10.390625 -0.625 8.984375 -1.328125 7.703125 -2.234375 C 6.421875 -3.148438 5.304688 -4.226562 4.359375 -5.46875 C 3.410156 -6.71875 2.675781 -8.09375 2.15625 -9.59375 C 1.644531 -11.09375 1.390625 -12.671875 1.390625 -14.328125 C 1.390625 -15.992188 1.644531 -17.570312 2.15625 -19.0625 C 2.675781 -20.550781 3.410156 -21.914062 4.359375 -23.15625 C 5.304688 -24.394531 6.421875 -25.46875 7.703125 -26.375 C 8.984375 -27.289062 10.390625 -27.992188 11.921875 -28.484375 C 13.460938 -28.984375 15.082031 -29.234375 16.78125 -29.234375 C 18.476562 -29.234375 20.09375 -28.984375 21.625 -28.484375 C 23.164062 -27.992188 24.582031 -27.289062 25.875 -26.375 C 27.164062 -25.46875 28.28125 -24.394531 29.21875 -23.15625 C 30.164062 -21.914062 30.898438 -20.550781 31.421875 -19.0625 C 31.941406 -17.570312 32.203125 -15.992188 32.203125 -14.328125 C 32.203125 -12.671875 31.941406 -11.09375 31.421875 -9.59375 C 30.898438 -8.09375 30.164062 -6.71875 29.21875 -5.46875 C 28.28125 -4.226562 27.164062 -3.148438 25.875 -2.234375 C 24.582031 -1.328125 23.171875 -0.625 21.640625 -0.125 C 20.109375 0.363281 18.488281 0.609375 16.78125 0.609375 Z M 16.78125 -4.203125 C 18.195312 -4.203125 19.519531 -4.453125 20.75 -4.953125 C 21.976562 -5.460938 23.0625 -6.171875 24 -7.078125 C 24.945312 -7.984375 25.679688 -9.050781 26.203125 -10.28125 C 26.722656 -11.519531 26.984375 -12.859375 26.984375 -14.296875 C 26.984375 -15.753906 26.722656 -17.101562 26.203125 -18.34375 C 25.679688 -19.582031 24.945312 -20.65625 24 -21.5625 C 23.0625 -22.476562 21.976562 -23.1875 20.75 -23.6875 C 19.519531 -24.195312 18.195312 -24.453125 16.78125 -24.453125 C 15.382812 -24.453125 14.066406 -24.195312 12.828125 -23.6875 C 11.597656 -23.1875 10.515625 -22.476562 9.578125 -21.5625 C 8.648438 -20.644531 7.921875 -19.566406 7.390625 -18.328125 C 6.867188 -17.097656 6.609375 -15.753906 6.609375 -14.296875 C 6.609375 -12.859375 6.867188 -11.519531 7.390625 -10.28125 C 7.921875 -9.050781 8.648438 -7.984375 9.578125 -7.078125 C 10.515625 -6.171875 11.597656 -5.460938 12.828125 -4.953125 C 14.066406 -4.453125 15.382812 -4.203125 16.78125 -4.203125 Z M 16.78125 -4.203125 "/></g></g></g></g><g fill="#000000" fill-opacity="1"><g transform="translate(92.624922, 30.031389)"><g><path d="M 15.109375 0.625 C 13.378906 0.625 11.773438 0.351562 10.296875 -0.1875 C 8.828125 -0.738281 7.535156 -1.519531 6.421875 -2.53125 C 5.304688 -3.539062 4.441406 -4.765625 3.828125 -6.203125 C 3.210938 -7.648438 2.90625 -9.265625 2.90625 -11.046875 L 2.90625 -28.5625 L 8.109375 -28.5625 L 8.109375 -11.421875 C 8.109375 -10.078125 8.375 -8.851562 8.90625 -7.75 C 9.445312 -6.65625 10.238281 -5.78125 11.28125 -5.125 C 12.332031 -4.476562 13.609375 -4.15625 15.109375 -4.15625 C 16.578125 -4.15625 17.828125 -4.476562 18.859375 -5.125 C 19.898438 -5.769531 20.695312 -6.640625 21.25 -7.734375 C 21.800781 -8.835938 22.078125 -10.0625 22.078125 -11.40625 L 22.078125 -28.5625 L 27.3125 -28.5625 L 27.3125 -11.046875 C 27.3125 -9.335938 27.015625 -7.769531 26.421875 -6.34375 C 25.835938 -4.925781 25.003906 -3.695312 23.921875 -2.65625 C 22.847656 -1.613281 21.5625 -0.804688 20.0625 -0.234375 C 18.5625 0.335938 16.910156 0.625 15.109375 0.625 Z M 15.109375 0.625 "/></g></g></g><g fill="#000000" fill-opacity="1"><g transform="translate(138.327241, 30.031389)"><g><path d="M 8.625 0 L 3.40625 0 L 3.40625 -28.5625 L 7.890625 -28.5625 L 23.46875 -8.5625 L 23.46875 -28.5625 L 28.671875 -28.5625 L 28.671875 0 L 24.203125 0 L 8.625 -19.96875 Z M 8.625 0 "/></g></g></g><g fill="#000000" fill-opacity="1"><g transform="translate(185.919437, 30.031389)"><g><path d="M 14.625 0 L 9.40625 0 L 9.40625 -23.90625 L 0.90625 -23.90625 L 0.90625 -28.5625 L 23.125 -28.5625 L 23.125 -23.90625 L 14.625 -23.90625 Z M 14.625 0 "/></g></g></g><g fill="#000000" fill-opacity="1"><g transform="translate(225.469138, 30.031389)"><g><path d="M 8.625 0 L 3.40625 0 L 3.40625 -28.5625 L 8.625 -28.5625 Z M 8.625 0 "/></g></g></g><g clip-path="url(#7d0cea86f8)"><g fill="#000000" fill-opacity="1"><g transform="translate(253.007638, 30.031389)"><g><path d="M 32.203125 -14.328125 C 32.203125 -12.753906 31.96875 -11.25 31.5 -9.8125 C 31.03125 -8.382812 30.367188 -7.066406 29.515625 -5.859375 C 28.660156 -4.648438 27.644531 -3.59375 26.46875 -2.6875 L 30.953125 3.609375 L 26.109375 6.390625 L 21.984375 -0.25 C 21.171875 0.0078125 20.328125 0.21875 19.453125 0.375 C 18.578125 0.53125 17.6875 0.609375 16.78125 0.609375 C 15.082031 0.609375 13.460938 0.363281 11.921875 -0.125 C 10.390625 -0.625 8.984375 -1.328125 7.703125 -2.234375 C 6.421875 -3.148438 5.304688 -4.226562 4.359375 -5.46875 C 3.410156 -6.71875 2.675781 -8.09375 2.15625 -9.59375 C 1.644531 -11.09375 1.390625 -12.671875 1.390625 -14.328125 C 1.390625 -15.992188 1.644531 -17.570312 2.15625 -19.0625 C 2.675781 -20.550781 3.410156 -21.914062 4.359375 -23.15625 C 5.304688 -24.394531 6.421875 -25.46875 7.703125 -26.375 C 8.984375 -27.289062 10.390625 -27.992188 11.921875 -28.484375 C 13.460938 -28.984375 15.082031 -29.234375 16.78125 -29.234375 C 18.476562 -29.234375 20.09375 -28.984375 21.625 -28.484375 C 23.164062 -27.992188 24.582031 -27.289062 25.875 -26.375 C 27.164062 -25.46875 28.28125 -24.394531 29.21875 -23.15625 C 30.164062 -21.914062 30.898438 -20.550781 31.421875 -19.0625 C 31.941406 -17.570312 32.203125 -15.992188 32.203125 -14.328125 Z M 6.609375 -14.296875 C 6.609375 -12.859375 6.867188 -11.519531 7.390625 -10.28125 C 7.921875 -9.050781 8.648438 -7.984375 9.578125 -7.078125 C 10.515625 -6.171875 11.597656 -5.460938 12.828125 -4.953125 C 14.066406 -4.453125 15.382812 -4.203125 16.78125 -4.203125 C 18.195312 -4.203125 19.519531 -4.453125 20.75 -4.953125 C 21.976562 -5.460938 23.0625 -6.171875 24 -7.078125 C 24.945312 -7.984375 25.679688 -9.050781 26.203125 -10.28125 C 26.722656 -11.519531 26.984375 -12.859375 26.984375 -14.296875 C 26.984375 -15.753906 26.722656 -17.101562 26.203125 -18.34375 C 25.679688 -19.582031 24.945312 -20.65625 24 -21.5625 C 23.0625 -22.476562 21.976562 -23.1875 20.75 -23.6875 C 19.519531 -24.195312 18.195312 -24.453125 16.78125 -24.453125 C 15.382812 -24.453125 14.066406 -24.195312 12.828125 -23.6875 C 11.597656 -23.1875 10.515625 -22.476562 9.578125 -21.5625 C 8.648438 -20.644531 7.921875 -19.566406 7.390625 -18.328125 C 6.867188 -17.097656 6.609375 -15.753906 6.609375 -14.296875 Z M 6.609375 -14.296875 "/></g></g></g></g></g></g></svg>